<svg viewBox="0 0 1202 1202" fill="none" xmlns="http://www.w3.org/2000/svg">
  <path
    d="M682 712.3H375.9V265H682C787.1 265 872.2 350.2 872.2 455.2V522C872.2 627.1 787.1 712.3 682 712.3Z"
    fill="#ACD905"></path>
  <path
    d="M760.9 936H375.9V712.3C375.9 588.8 476 488.7 599.5 488.7H760.9C884.4 488.7 984.5 588.8 984.5 712.3C984.5 835.8 884.4 936 760.9 936Z"
    fill="#AEAFAA"></path>
  <path
    d="M872.2 518.4V522.1C872.2 627.2 787.1 712.3 681.9 712.3H375.9C375.9 650.6 401 594.7 441.4 554.2C481.9 513.7 537.8 488.7 599.6 488.7H760.9C801.5 488.7 839.5 499.5 872.2 518.4Z"
    fill="#5D6E3C"></path>
</svg>